<svg xmlns="http://www.w3.org/2000/svg" viewBox="0 0 150 140">
  <path d="M18 58 Q38 44 58 58" stroke="#5C4326" stroke-width="5" fill="none" stroke-linecap="round"/>
  <ellipse cx="38" cy="62" rx="30" ry="34" fill="#8A6B3F" stroke="#6B4F30" stroke-width="2"/>
  <path d="M16 58 Q38 68 60 56" stroke="#6B4F30" stroke-width="2" fill="none" opacity=".5"/>
  <path d="M18 78 Q38 86 58 76" stroke="#6B4F30" stroke-width="2" fill="none" opacity=".5"/>
  <rect x="28" y="18" width="20" height="16" rx="2" fill="#B3232F" stroke="#8E1A26" stroke-width="1.5"/>
  <rect x="36" y="18" width="4" height="16" fill="#D7BE86"/>
  <rect x="28" y="24" width="20" height="4" fill="#D7BE86"/>
  <path d="M78 98 L58 120 L50 130 L66 132 L82 110 Z" fill="#B3232F" stroke="#8E1A26" stroke-width="1"/>
  <ellipse cx="52" cy="132" rx="14" ry="8" fill="#2A2A2A"/>
  <path d="M68 52 C50 58, 42 66, 40 80" stroke="#B3232F" stroke-width="14" fill="none" stroke-linecap="round"/>
  <circle cx="40" cy="82" r="7" fill="#F0C9A0"/>
  <path d="M66 46 C66 40, 100 40, 100 46 L104 96 C104 104, 62 104, 62 96 Z" fill="#B3232F" stroke="#8E1A26" stroke-width="1.5"/>
  <rect x="62" y="84" width="42" height="10" fill="#2A2A2A"/>
  <rect x="79" y="85" width="8" height="8" fill="#D7BE86" stroke="#B09E7A" stroke-width="1"/>
  <rect x="60" y="94" width="46" height="8" rx="4" fill="#fff" stroke="#EADFC9" stroke-width="1"/>
  <path d="M88 98 L104 118 L112 130 L96 133 L82 112 Z" fill="#B3232F" stroke="#8E1A26" stroke-width="1"/>
  <ellipse cx="108" cy="131" rx="15" ry="8" fill="#2A2A2A"/>
  <path d="M96 52 C108 58, 112 68, 106 78" stroke="#B3232F" stroke-width="14" fill="none" stroke-linecap="round"/>
  <circle cx="106" cy="80" r="7" fill="#F0C9A0"/>
  <circle cx="100" cy="30" r="19" fill="#F0C9A0"/>
  <path d="M84 22 C78 6, 108 -6, 122 10 C126 16, 116 22, 104 24 L84 22 Z" fill="#B3232F" stroke="#8E1A26" stroke-width="1.5"/>
  <circle cx="122" cy="11" r="6" fill="#fff" stroke="#EADFC9" stroke-width="1"/>
  <rect x="80" y="20" width="34" height="9" rx="4.5" fill="#fff" stroke="#EADFC9" stroke-width="1"/>
  <path d="M86 34 C88 30, 96 28, 100 30 C104 28, 112 30, 114 34 C120 40, 116 50, 106 52 C110 46, 105 42, 100 43 C95 42, 90 46, 94 52 C84 50, 80 40, 86 34 Z" fill="#fff" stroke="#EADFC9" stroke-width="1"/>
  <circle cx="106" cy="28" r="1.6" fill="#2A2A2A"/>
  <circle cx="112" cy="30" r="2.4" fill="#E8B48C"/>
</svg>
