<svg xmlns="http://www.w3.org/2000/svg" viewBox="0 0 100 120">
  <ellipse cx="14" cy="86" rx="12" ry="9" fill="#B3232F" transform="rotate(-18 14 86)"/>
  <rect x="4" y="88" width="18" height="7" rx="3.5" fill="#fff" transform="rotate(-18 13 91)"/>
  <path d="M26 40 C20 10, 62 -8, 80 18 C86 27, 70 35, 54 38 L26 40 Z" fill="#B3232F" stroke="#8E1A26" stroke-width="1.5" stroke-linejoin="round"/>
  <circle cx="80" cy="19" r="9" fill="#fff" stroke="#EADFC9" stroke-width="1"/>
  <rect x="18" y="36" width="64" height="17" rx="8.5" fill="#fff" stroke="#EADFC9" stroke-width="1"/>
  <circle cx="50" cy="60" r="25" fill="#F0C9A0"/>
  <circle cx="36" cy="66" r="6" fill="#F2A9A0" opacity=".75"/>
  <circle cx="64" cy="66" r="6" fill="#F2A9A0" opacity=".75"/>
  <ellipse cx="41" cy="56" rx="3" ry="4" fill="#2A2A2A"/>
  <ellipse cx="59" cy="56" rx="3" ry="4" fill="#2A2A2A"/>
  <circle cx="42" cy="55" r=".9" fill="#fff"/>
  <circle cx="60" cy="55" r=".9" fill="#fff"/>
  <circle cx="50" cy="64" r="4" fill="#E8B48C"/>
  <path d="M30 68 C34 61, 46 59, 50 62 C54 59, 66 61, 70 68 C79 77, 75 92, 60 96 C67 86, 60 79, 50 81 C40 79, 33 86, 40 96 C25 92, 21 77, 30 68 Z" fill="#fff" stroke="#EADFC9" stroke-width="1.5" stroke-linejoin="round"/>
</svg>
